<?xml version="1.0" standalone="no"?>
<!DOCTYPE svg PUBLIC "-//W3C//DTD SVG 20010904//EN"
 "http://www.w3.org/TR/2001/REC-SVG-20010904/DTD/svg10.dtd">
<svg version="1.0" xmlns="http://www.w3.org/2000/svg"
 width="600.000000pt" height="720.000000pt" viewBox="0 0 600.000000 720.000000"
 preserveAspectRatio="xMidYMid meet">

<g transform="translate(0.000000,720.000000) scale(0.100000,-0.100000)"
fill="#000000" stroke="none">
<path d="M2873 7045 c-102 -44 -163 -120 -179 -222 -12 -77 68 -207 151 -244
70 -32 119 -25 215 30 46 26 93 59 103 73 10 13 22 54 27 91 9 58 7 76 -10
124 -24 68 -63 119 -110 144 -42 23 -149 25 -197 4z"/>
<path d="M3314 6289 c-49 -14 -126 -71 -159 -118 -27 -38 -30 -52 -34 -128 -4
-114 11 -165 68 -224 34 -34 57 -49 86 -55 46 -8 176 11 218 33 45 23 109 85
124 120 19 46 17 186 -3 226 -64 125 -179 181 -300 146z"/>
<path d="M2508 6279 c-106 -15 -181 -66 -215 -146 -16 -39 -17 -153 -2 -206
16 -57 71 -113 137 -138 97 -36 245 -11 311 53 54 53 66 84 64 171 -4 160 -52
244 -153 266 -56 12 -61 12 -142 0z"/>
<path d="M3603 5500 c-73 -17 -167 -91 -198 -155 -22 -47 -20 -169 4 -221 44
-97 155 -164 271 -164 64 0 71 2 126 43 83 61 117 126 116 221 -2 206 -134
320 -319 276z"/>
<path d="M2179 5450 c-85 -15 -156 -63 -178 -123 -16 -41 -13 -152 5 -216 19
-71 75 -148 119 -167 65 -27 191 -13 283 32 77 38 102 85 102 196 0 111 -28
206 -70 242 -52 44 -142 56 -261 36z"/>
<path d="M3878 4627 c-58 -17 -130 -74 -164 -132 -52 -90 -41 -229 25 -298 91
-95 184 -128 305 -107 84 14 132 46 185 124 68 98 66 174 -9 289 -65 101 -112
129 -219 134 -43 1 -96 -3 -123 -10z"/>
<path d="M1842 4559 c-122 -20 -166 -71 -178 -208 -9 -98 1 -151 44 -216 53
-81 97 -100 232 -100 96 0 109 2 150 27 84 49 92 64 102 185 5 60 6 126 3 148
-16 110 -103 176 -229 174 -39 -1 -95 -5 -124 -10z"/>
<path d="M1590 3774 c-104 -27 -158 -81 -186 -186 -18 -67 -4 -137 40 -211 38
-63 76 -90 159 -110 70 -18 123 -10 203 31 159 81 173 323 26 453 -43 38 -47
39 -116 38 -39 0 -96 -7 -126 -15z"/>
<path d="M4207 3756 c-86 -32 -149 -91 -182 -170 -26 -62 -12 -171 32 -244 43
-71 87 -118 135 -143 48 -24 67 -24 159 4 90 28 182 86 215 137 42 63 45 92
22 192 -23 98 -52 146 -121 202 -35 28 -44 30 -130 33 -62 2 -105 -1 -130 -11z"/>
<path d="M1297 2969 c-78 -18 -108 -42 -172 -135 -31 -44 -39 -67 -45 -122
-13 -127 25 -206 127 -259 164 -86 316 -58 401 74 27 42 33 62 38 136 8 102
-5 159 -48 211 -37 46 -83 69 -175 90 -80 18 -73 17 -126 5z"/>
<path d="M4458 2925 c-63 -33 -113 -87 -132 -143 -21 -60 -20 -87 5 -192 23
-102 52 -138 137 -178 47 -21 64 -23 145 -20 107 4 151 21 214 85 58 58 81
133 63 212 -17 78 -47 154 -72 186 -12 15 -44 38 -72 51 -43 20 -67 24 -146
23 -81 0 -102 -4 -142 -24z"/>
<path d="M4788 2200 c-93 -25 -122 -48 -164 -136 -34 -72 -36 -79 -29 -142 4
-37 13 -82 21 -101 24 -59 81 -118 140 -147 49 -24 62 -26 122 -20 108 10 140
23 197 79 65 65 80 114 73 232 -6 93 -20 124 -85 187 -72 70 -146 83 -275 48z"/>
<path d="M1025 2198 c-110 -39 -194 -156 -195 -271 -1 -113 50 -198 154 -257
45 -27 60 -30 136 -30 61 0 96 6 125 19 46 20 105 82 133 138 26 51 37 184 21
248 -17 68 -77 128 -148 149 -61 18 -180 20 -226 4z"/>
<path d="M1908 2187 c-86 -25 -160 -88 -188 -162 -28 -72 -29 -127 -4 -206 33
-106 67 -148 145 -185 57 -26 74 -29 164 -29 90 0 106 3 158 29 69 33 109 88
128 173 30 134 -52 297 -183 364 -53 27 -154 34 -220 16z"/>
<path d="M2785 2157 c-95 -42 -102 -48 -141 -105 -23 -33 -47 -83 -54 -112
-11 -46 -10 -58 11 -122 31 -98 70 -145 153 -188 60 -30 78 -35 140 -35 85 1
176 33 222 79 67 67 93 205 61 317 -25 83 -65 132 -139 168 -101 50 -135 49
-253 -2z"/>
<path d="M3806 2152 c-119 -42 -159 -71 -176 -131 -16 -57 -12 -118 14 -226
21 -87 29 -104 58 -128 50 -42 127 -61 221 -54 190 13 281 125 248 305 -23
126 -71 216 -132 247 -57 30 -117 27 -233 -13z"/>
<path d="M5122 1434 c-69 -15 -117 -47 -177 -117 -45 -52 -59 -103 -52 -195 5
-65 9 -78 41 -116 43 -53 115 -102 170 -117 82 -22 254 31 288 89 23 39 49
116 50 150 4 145 -78 272 -200 308 -25 8 -48 14 -51 13 -3 -1 -35 -7 -69 -15z"/>
<path d="M752 1395 c-35 -8 -78 -23 -97 -35 -48 -30 -104 -97 -111 -135 -4
-25 10 -132 31 -232 7 -30 66 -88 117 -114 37 -19 54 -21 130 -17 73 5 100 11
152 37 77 38 109 80 131 174 14 60 14 73 0 133 -21 91 -39 124 -83 155 -73 51
-147 60 -270 34z"/>
<path d="M5400 671 c-91 -28 -181 -96 -214 -162 -45 -90 -34 -196 29 -284 69
-97 155 -131 293 -115 127 14 186 55 233 158 19 43 20 54 10 130 -13 100 -45
167 -109 223 -25 21 -61 43 -81 49 -41 11 -124 12 -161 1z"/>
<path d="M440 631 c-94 -29 -160 -91 -185 -173 -20 -68 -19 -107 5 -169 28
-76 66 -125 123 -160 159 -98 372 -1 406 183 11 56 10 69 -8 120 -23 68 -70
139 -109 166 -51 36 -168 52 -232 33z"/>
</g>
</svg>
